{"title":"The Block - S12E10 - Master Bathrooms Continue","uid":15768094,"size":390733108,"categoryP":"video","categoryS":"tv_shows","magnet":"?xt=urn:btih:99022130e02795003a721e4f58c7b2847591c4d9&amp;dn=The+Block+-+S12E10+-+Master+Bathrooms+Continue&amp;tr=udp%3A%2F%2Ftracker.leechers-paradise.org%3A6969&amp;tr=udp%3A%2F%2Fzer0day.ch%3A1337&amp;tr=udp%3A%2F%2Fopen.demonii.com%3A1337&amp;tr=udp%3A%2F%2Ftracker.coppersurfer.tk%3A6969&amp;tr=udp%3A%2F%2Fexodus.desync.com%3A6969","seeders":5,"leechers":2,"uploader":"Bullrout","files":1,"time":1473180147,"description":"The Block - S12E10 - Master Bathrooms Continue\r\n\r\nThe bathroom dramas continue for Julia and Sasha, and foremen Keith and Dan step in with a special treat for Julia. Dan and Carleen employ the services of a buyer's advocate, in a move they hope will put them ahead of their competition.\r\n\r\nFormat                                   : MPEG-4\r\nFormat profile                           : Base Media / Version 2\r\nCodec ID                                 : mp42 (mp42/isom/avc1)\r\nFile size                                : 373 MiB\r\nDuration                                 : 46mn 43s\r\nOverall bit rate mode                    : Variable\r\nOverall bit rate                         : 1 115 Kbps\r\n\r\n\r\nVideo\r\nID                                       : 2\r\nFormat                                   : AVC\r\nFormat/Info                              : Advanced Video Codec\r\nFormat profile                           :   \r\nFormat settings, CABAC                   : Yes\r\nFormat settings, ReFrames                : 3 frames\r\nCodec ID                                 : avc1\r\nCodec ID/Info                            : Advanced Video Coding\r\nDuration                                 : 46mn 43s\r\nBit rate mode                            : Variable\r\nBit rate                                 : 983 Kbps\r\nMaximum bit rate                         : 1 000 Kbps\r\nWidth                                    : 720 pixels\r\nHeight                                   : 404 pixels\r\nDisplay aspect ratio                     : 16:9\r\nOriginal display aspect ratio            : 16:9\r\nFrame rate mode                          : Constant\r\nFrame rate                               : 25.000 fps\r\nStandard                                 : PAL\r\nColor space                              : YUV\r\nChroma subsampling                       : 4:2:0\r\nBit depth                                : 8 bits\r\nScan type                                : Progressive\r\nBits/(Pixel*Frame)                       : 0.135\r\nStream size                              : 329 MiB (88%)\r\nWriting library                          : x264 core 112\r\nColor range                              : Limited\r\nColor primaries                          : BT.601 PAL\r\nTransfer characteristics                 : BT.470 System B, BT.470 System G\r\nMatrix coefficients                      : BT.601\r\n\r\nAudio\r\nID                                       : 1\r\nFormat                                   : AAC\r\nFormat/Info                              : Advanced Audio Codec\r\nFormat profile                           : LC\r\nCodec ID                                 : 40\r\nDuration                                 : 46mn 43s\r\nBit rate mode                            : Variable\r\nBit rate                                 : 128 Kbps\r\nMaximum bit rate                         : 576 Kbps\r\nChannel(s)                               : 2 channels\r\nChannel positions                        : Front: L R\r\nSampling rate                            : 48.0 KHz\r\nFrame rate                               : 46.875 fps (1024 spf)\r\nCompression mode                         : Lossy\r\nStream size                              : 42.8 MiB (11%)","torrent":{"xt":"urn:btih:99022130e02795003a721e4f58c7b2847591c4d9","amp;dn":"The+Block+-+S12E10+-+Master+Bathrooms+Continue","amp;tr":["udp%3A%2F%2Ftracker.leechers-paradise.org%3A6969","udp%3A%2F%2Fzer0day.ch%3A1337","udp%3A%2F%2Fopen.demonii.com%3A1337","udp%3A%2F%2Ftracker.coppersurfer.tk%3A6969","udp%3A%2F%2Fexodus.desync.com%3A6969"],"infoHash":"99022130e02795003a721e4f58c7b2847591c4d9","infoHashBuffer":{"type":"Buffer","data":[153,2,33,48,224,39,149,0,58,114,30,79,88,199,178,132,117,145,196,217]},"announce":[],"urlList":[]}}